<svg width="88" height="88" viewBox="0 0 88 88" fill="none" xmlns="http://www.w3.org/2000/svg">
<g clip-path="url(#clip0_1_2)">
<path d="M34.625 34.625H53.375V40.875C53.375 46.0508 49.1758 50.25 44 50.25C38.8242 50.25 34.625 46.0508 34.625 40.875V34.625ZM34.625 28.375H53.375C53.375 23.1992 49.1758 19 44 19C38.8242 19 34.625 23.1992 34.625 28.375ZM87.75 44C87.75 55.602 83.1406 66.73 74.938 74.938C66.731 83.1411 55.602 87.75 44 87.75C32.398 87.75 21.27 83.1406 13.062 74.938C4.8589 66.731 0.25 55.602 0.25 44C0.25 32.398 4.8594 21.27 13.062 13.062C21.269 4.8589 32.398 0.25 44 0.25C55.598 0.261719 66.719 4.875 74.922 13.078C83.125 21.281 87.738 32.402 87.75 44ZM70.562 42.4375C70.562 40.7109 69.1636 39.3125 67.437 39.3125C65.7104 39.3125 64.312 40.7109 64.312 42.4375C64.312 49.6953 60.4409 56.3985 54.156 60.0275C47.8711 63.6565 40.129 63.6564 33.844 60.0275C27.559 56.3986 23.688 49.6955 23.688 42.4375C23.688 40.7109 22.2896 39.3125 20.563 39.3125C18.8364 39.3125 17.438 40.7109 17.438 42.4375C17.4458 48.9375 19.8364 55.2105 24.1528 60.0705C28.4731 64.9299 34.4228 68.0393 40.8758 68.8127V72.1252C40.8758 73.8518 42.2742 75.2502 44.0008 75.2502C45.7274 75.2502 47.1258 73.8518 47.1258 72.1252V68.8127C53.5789 68.0393 59.5278 64.9299 63.8488 60.0705C68.1652 55.2111 70.5558 48.9375 70.5636 42.4375H70.562ZM44 12.7495C39.8555 12.7495 35.8828 14.394 32.953 17.3276C30.0194 20.2573 28.3749 24.2299 28.3749 28.3746V40.8746C28.3749 46.4566 31.3515 51.6166 36.1874 54.4056C41.0233 57.1986 46.9764 57.1986 51.8124 54.4056C56.6483 51.6165 59.6249 46.4564 59.6249 40.8746V28.3746C59.6249 24.2301 57.9804 20.2574 55.0468 17.3276C52.1171 14.394 48.1447 12.7495 44 12.7495Z" fill="white"/>
</g>
<defs>
<clipPath id="clip0_1_2">
<rect width="88" height="88" fill="white"/>
</clipPath>
</defs>
</svg>
